<svg width="24" height="25" viewBox="0 0 24 25" fill="none" xmlns="http://www.w3.org/2000/svg">
<path opacity="0.4" d="M15 9.5C16.6569 9.5 18 8.15685 18 6.5C18 4.84315 16.6569 3.5 15 3.5C13.3431 3.5 12 4.84315 12 6.5C12 8.15685 13.3431 9.5 15 9.5Z" fill="#FF9B62"/>
<path opacity="0.4" d="M16 20.5C18.7614 20.5 21 19.1569 21 17.5C21 15.8431 18.7614 14.5 16 14.5C13.2386 14.5 11 15.8431 11 17.5C11 19.1569 13.2386 20.5 16 20.5Z" fill="#FF9B62"/>
<path d="M9.00098 10.5C11.2101 10.5 13.001 8.70914 13.001 6.5C13.001 4.29086 11.2101 2.5 9.00098 2.5C6.79184 2.5 5.00098 4.29086 5.00098 6.5C5.00098 8.70914 6.79184 10.5 9.00098 10.5Z" fill="#FF9B62"/>
<path d="M9.00098 21.501C12.867 21.501 16.001 19.7101 16.001 17.501C16.001 15.2919 12.867 13.501 9.00098 13.501C5.13498 13.501 2.00098 15.2919 2.00098 17.501C2.00098 19.7101 5.13498 21.501 9.00098 21.501Z" fill="#FF9B62"/>
</svg>
