<svg width="40" height="40" viewBox="0 0 40 40" fill="none" xmlns="http://www.w3.org/2000/svg">
<path fill-rule="evenodd" clip-rule="evenodd" d="M19.9999 6.66667C17.6679 6.66624 15.3765 7.27748 13.3545 8.43938C11.3325 9.60128 9.65055 11.2732 8.47663 13.2883C7.30271 15.3033 6.67784 17.591 6.66438 19.9231C6.65092 22.2551 7.24935 24.5499 8.39994 26.5783C9.17762 25.5676 10.1773 24.7493 11.3217 24.1866C12.4662 23.624 13.7247 23.332 14.9999 23.3333H24.9999C26.2752 23.332 27.5337 23.624 28.6781 24.1866C29.8226 24.7493 30.8223 25.5676 31.5999 26.5783C32.7505 24.5499 33.3489 22.2551 33.3355 19.9231C33.322 17.591 32.6972 15.3033 31.5232 13.2883C30.3493 11.2732 28.6674 9.60128 26.6454 8.43938C24.6234 7.27748 22.332 6.66624 19.9999 6.66667ZM33.2383 30.1267C33.4472 29.8544 33.6472 29.5756 33.8383 29.29C35.686 26.5445 36.6709 23.3094 36.6666 20C36.6666 10.795 29.2049 3.33334 19.9999 3.33334C10.7949 3.33334 3.33327 10.795 3.33327 20C3.32802 23.6613 4.53334 27.2216 6.7616 30.1267L6.75327 30.1567L7.34494 30.845C8.90808 32.6725 10.8489 34.1394 13.0337 35.1444C15.2184 36.1494 17.5951 36.6688 19.9999 36.6667C20.3599 36.6667 20.7177 36.6556 21.0733 36.6333C24.0806 36.4437 26.9794 35.4382 29.4583 33.725C30.6438 32.9072 31.7183 31.9391 32.6549 30.845L33.2466 30.1567L33.2383 30.1267ZM19.9999 10C18.6739 10 17.4021 10.5268 16.4644 11.4645C15.5267 12.4022 14.9999 13.6739 14.9999 15C14.9999 16.3261 15.5267 17.5979 16.4644 18.5355C17.4021 19.4732 18.6739 20 19.9999 20C21.326 20 22.5978 19.4732 23.5355 18.5355C24.4732 17.5979 24.9999 16.3261 24.9999 15C24.9999 13.6739 24.4732 12.4022 23.5355 11.4645C22.5978 10.5268 21.326 10 19.9999 10Z" fill="#909090"/>
</svg>
