<svg width="24" height="25" viewBox="0 0 24 25" fill="none" xmlns="http://www.w3.org/2000/svg">
<path d="M14.756 1.5H9.116L8.469 4.737C7.93331 4.97706 7.42392 5.27197 6.949 5.617L3.819 4.558L1 9.442L3.481 11.622C3.42108 12.2058 3.42108 12.7942 3.481 13.378L1 15.558L3.82 20.442L6.949 19.384C7.421 19.726 7.929 20.022 8.469 20.263L9.116 23.5H14.756L15.403 20.263C15.9387 20.0229 16.4481 19.728 16.923 19.383L20.053 20.442L22.873 15.558L20.391 13.378C20.4509 12.7942 20.4509 12.2058 20.391 11.622L22.872 9.442L20.052 4.558L16.924 5.616C16.449 5.27131 15.9397 4.97674 15.404 4.737L14.756 1.5ZM11.936 16.5C10.8751 16.5 9.85772 16.0786 9.10757 15.3284C8.35743 14.5783 7.936 13.5609 7.936 12.5C7.936 11.4391 8.35743 10.4217 9.10757 9.67157C9.85772 8.92143 10.8751 8.5 11.936 8.5C12.9969 8.5 14.0143 8.92143 14.7644 9.67157C15.5146 10.4217 15.936 11.4391 15.936 12.5C15.936 13.5609 15.5146 14.5783 14.7644 15.3284C14.0143 16.0786 12.9969 16.5 11.936 16.5Z" fill="#FF9B62"/>
</svg>
