<svg width="30" height="30" viewBox="0 0 30 30" fill="none" xmlns="http://www.w3.org/2000/svg">
<path opacity="0.6" d="M18.75 2.5H17.5C13.965 2.5 12.1962 2.5 11.0987 3.59875C10 4.69625 10 6.465 10 10V20C10 23.535 10 25.3038 11.0987 26.4013C12.1962 27.5 13.965 27.5 17.5 27.5H18.75C22.285 27.5 24.0538 27.5 25.1513 26.4013C26.25 25.3038 26.25 23.535 26.25 20V10C26.25 6.465 26.25 4.69625 25.1513 3.59875C24.0538 2.5 22.285 2.5 18.75 2.5Z" fill="#707070"/>
<path opacity="0.4" d="M10 10C10 8.0775 10 6.67875 10.1762 5.625H10C7.05375 5.625 5.58 5.625 4.665 6.54C3.75 7.455 3.75 8.92875 3.75 11.875V18.125C3.75 21.0712 3.75 22.5437 4.665 23.46C5.58 24.3762 7.05375 24.375 10 24.375H10.1762C10 23.3213 10 21.9225 10 20V10Z" fill="#707070"/>
<path fill-rule="evenodd" clip-rule="evenodd" d="M5.58741 14.3375C5.41184 14.5133 5.31323 14.7516 5.31323 15C5.31323 15.2484 5.41184 15.4867 5.58741 15.6625L8.08741 18.1625C8.26513 18.3281 8.50018 18.4183 8.74306 18.414C8.98594 18.4097 9.21767 18.3113 9.38943 18.1395C9.5612 17.9678 9.65959 17.736 9.66388 17.4932C9.66816 17.2503 9.57801 17.0152 9.41241 16.8375L8.51241 15.9375H17.4999C17.7485 15.9375 17.987 15.8387 18.1628 15.6629C18.3386 15.4871 18.4374 15.2486 18.4374 15C18.4374 14.7514 18.3386 14.5129 18.1628 14.3371C17.987 14.1613 17.7485 14.0625 17.4999 14.0625H8.51241L9.41241 13.1625C9.50452 13.0767 9.57839 12.9732 9.62963 12.8582C9.68087 12.7432 9.70843 12.619 9.71065 12.4932C9.71287 12.3673 9.68971 12.2422 9.64256 12.1255C9.59541 12.0088 9.52523 11.9027 9.43621 11.8137C9.34718 11.7247 9.24114 11.6545 9.1244 11.6074C9.00767 11.5602 8.88263 11.537 8.75675 11.5393C8.63088 11.5415 8.50673 11.569 8.39173 11.6203C8.27674 11.6715 8.17323 11.7454 8.08741 11.8375L5.58741 14.3375Z" fill="#707070"/>
</svg>
