<svg width="20" height="20" viewBox="0 0 20 20" fill="none" xmlns="http://www.w3.org/2000/svg">
<path d="M10.42 0.859999C12.22 0.859999 13.8267 1.23333 15.24 1.98C16.6533 2.72667 17.7533 3.76667 18.54 5.1C19.3267 6.43333 19.72 7.94667 19.72 9.64C19.72 10.7733 19.5733 11.7533 19.28 12.58C18.9867 13.4067 18.5733 14.0333 18.04 14.46C17.52 14.8867 16.9133 15.1 16.22 15.1C15.6067 15.1 15.1 14.9533 14.7 14.66C14.3 14.3533 14.04 13.9267 13.92 13.38L13.86 12.8C13.4867 13.5333 12.96 14.1 12.28 14.5C11.6 14.9 10.8133 15.1 9.92 15.1C9.02667 15.1 8.21333 14.8867 7.48 14.46C6.74667 14.02 6.16667 13.4067 5.74 12.62C5.31333 11.8333 5.1 10.94 5.1 9.94C5.1 8.95333 5.30667 8.07333 5.72 7.3C6.14667 6.51333 6.72667 5.90667 7.46 5.48C8.19333 5.04 9.01333 4.82 9.92 4.82C10.7467 4.82 11.4867 5 12.14 5.36C12.7933 5.72 13.3067 6.23333 13.68 6.9V4.94H15.38V12.26C15.38 12.7533 15.48 13.1133 15.68 13.34C15.8933 13.5667 16.18 13.68 16.54 13.68C17.1133 13.68 17.5667 13.3333 17.9 12.64C18.2467 11.9467 18.42 10.9533 18.42 9.66C18.42 8.18 18.08 6.86667 17.4 5.72C16.7333 4.57333 15.7933 3.68667 14.58 3.06C13.3667 2.42 11.98 2.1 10.42 2.1C8.84667 2.1 7.44667 2.43333 6.22 3.1C5.00667 3.75333 4.06 4.67333 3.38 5.86C2.71333 7.04667 2.38 8.39333 2.38 9.9C2.38 11.42 2.71333 12.78 3.38 13.98C4.04667 15.1667 4.98 16.0867 6.18 16.74C7.39333 17.4067 8.78 17.74 10.34 17.74C10.9933 17.74 11.66 17.6667 12.34 17.52C13.02 17.3733 13.64 17.1533 14.2 16.86L14.64 18.08C14.0533 18.3867 13.3733 18.62 12.6 18.78C11.8267 18.94 11.0733 19.02 10.34 19.02C8.51333 19.02 6.88667 18.6267 5.46 17.84C4.03333 17.0667 2.92667 15.9867 2.14 14.6C1.35333 13.2133 0.96 11.6467 0.96 9.9C0.96 8.15333 1.35333 6.6 2.14 5.24C2.94 3.86667 4.05333 2.79333 5.48 2.02C6.92 1.24667 8.56667 0.859999 10.42 0.859999ZM10.26 13.62C10.9133 13.62 11.5 13.4667 12.02 13.16C12.5533 12.8533 12.9667 12.4267 13.26 11.88C13.5533 11.32 13.7 10.6733 13.7 9.94C13.7 9.22 13.5533 8.58667 13.26 8.04C12.9667 7.48 12.5533 7.05333 12.02 6.76C11.5 6.45333 10.9133 6.3 10.26 6.3C9.59333 6.3 9 6.45333 8.48 6.76C7.96 7.05333 7.55333 7.48 7.26 8.04C6.96667 8.58667 6.82 9.22 6.82 9.94C6.82 10.6733 6.96667 11.32 7.26 11.88C7.55333 12.4267 7.96 12.8533 8.48 13.16C9 13.4667 9.59333 13.62 10.26 13.62Z" fill="#B2B2B2"/>
</svg>
