<svg width="17" height="17" viewBox="0 0 17 17" fill="none" xmlns="http://www.w3.org/2000/svg">
<path fill-rule="evenodd" clip-rule="evenodd" d="M8.33333 16.8333C4.405 16.8333 2.44083 16.8333 1.22 15.6125C0 14.3933 0 12.4283 0 8.5C0 4.57167 0 2.6075 1.22 1.38667C2.44167 0.166668 4.405 0.166668 8.33333 0.166668C12.2617 0.166668 14.2258 0.166668 15.4458 1.38667C16.6667 2.60833 16.6667 4.57167 16.6667 8.5C16.6667 12.4283 16.6667 14.3925 15.4458 15.6125C14.2267 16.8333 12.2617 16.8333 8.33333 16.8333ZM11.6917 5.975C11.8087 6.09219 11.8744 6.25104 11.8744 6.41667C11.8744 6.58229 11.8087 6.74115 11.6917 6.85833L7.525 11.025C7.40781 11.142 7.24896 11.2078 7.08333 11.2078C6.91771 11.2078 6.75885 11.142 6.64167 11.025L4.975 9.35833C4.91359 9.30112 4.86434 9.23212 4.83018 9.15545C4.79602 9.07878 4.77765 8.99602 4.77617 8.9121C4.77469 8.82818 4.79013 8.74483 4.82156 8.667C4.853 8.58918 4.89979 8.51849 4.95913 8.45914C5.01848 8.39979 5.08918 8.353 5.167 8.32157C5.24483 8.29013 5.32818 8.27469 5.4121 8.27617C5.49602 8.27766 5.57878 8.29602 5.65545 8.33018C5.73211 8.36434 5.80111 8.4136 5.85833 8.475L7.08333 9.7L10.8083 5.975C10.9255 5.85796 11.0844 5.79222 11.25 5.79222C11.4156 5.79222 11.5745 5.85796 11.6917 5.975Z" fill="#B2B2B2"/>
</svg>
